<?xml version="1.0" encoding="utf-8"?>
<!-- Generator: Adobe Illustrator 25.2.0, SVG Export Plug-In . SVG Version: 6.00 Build 0)  -->
<svg version="1.1" id="Layer_1" xmlns="http://www.w3.org/2000/svg" xmlns:xlink="http://www.w3.org/1999/xlink" x="0px" y="0px"
	 viewBox="0 0 162 162" style="enable-background:new 0 0 162 162;" xml:space="preserve">
<style type="text/css">
	.st0{fill:#FEFBF0;stroke:#3C6053;stroke-miterlimit:10;}
	.st1{opacity:0.15;fill:#3C6053;enable-background:new    ;}
	.st2{fill:none;stroke:#3C6053;stroke-width:0.5;stroke-miterlimit:10;}
	.st3{fill:#3C6053;}
	.st4{fill:none;stroke:#3C6053;stroke-width:0.25;stroke-miterlimit:10;}
	.st5{fill:#CFD3D1;}
</style>
<g>
	<circle class="st0" cx="81" cy="81" r="80.5"/>
	<path class="st1" d="M63.1,74.5c2.6-1.3,7.1-3.1,12.8-3.5c7.8-0.5,13.8,1.9,16.6,3.3c-0.1-2-1.2-23.4,11.1-33.3
		c2.3-1.8,7.4-6,14.3-5.5c1.3,0.1,4.8,0.2,6.3,1.9c2.8,3.1,2.6,12.2-19.1,42.6c0.8,1.5,7.9,16,0.3,31.2c-8.4,16.9-27,18.8-28.1,18.9
		c-1.8-0.3-18.6-3.2-26.8-19.1c-7.2-13.7-2.7-26.9-1.9-29.1C35.8,64.3,22.2,42.8,27.7,37c0.9-1,2.4-1.2,3.9-1.5
		c8.3-1.4,15.8,5.3,18.6,7.9C61.7,53.8,62.9,69.6,63.1,74.5z"/>
	<path class="st2" d="M66.9,73.6c2.6-1.3,7.1-3.1,12.8-3.5c7.8-0.5,13.8,1.9,16.6,3.3c-0.1-2-1.2-23.4,11.1-33.3
		c2.3-1.8,7.4-6,14.3-5.5c1.3,0.1,4.8,0.2,6.3,1.9c2.8,3.1,2.6,12.2-19.1,42.6c0.8,1.5,7.9,16,0.3,31.2c-8.4,16.9-27,18.8-28.1,18.9
		c-1.8-0.3-18.6-3.2-26.8-19.1c-7.2-13.7-2.7-26.9-1.9-29.1C39.6,63.4,26,41.9,31.5,36c0.9-1,2.4-1.2,3.9-1.5
		c8.3-1.4,15.8,5.3,18.6,7.9C65.5,52.9,66.7,68.7,66.9,73.6z"/>
	<path class="st3" d="M75.9,99.5c0,0,2.1,6.7,4.5,8.8s5.5-8.3,5.6-8.8S80.2,95.3,75.9,99.5z"/>
	<path class="st2" d="M107.7,78.1c17-23.8,17.1-30.9,15-33.3c-1.1-1.3-3.9-1.4-4.9-1.5c-5.3-0.3-9.4,2.9-11.2,4.3
		c-9.6,7.7-8.8,24.5-8.7,26.1L107.7,78.1z"/>
	<path class="st2" d="M64.7,73.1c-0.2-3.8-1.1-16.2-10.1-24.4c-2.2-2-8.1-7.3-14.6-6.2c-1.2,0.2-2.3,0.4-3,1.1
		c-4.3,4.6,6.4,21.4,16.3,35.2L64.7,73.1z"/>
	<g>
		<path class="st3" d="M89,99c2.6-1.1,5.2-1.8,7.9-2.4c2.7-0.6,5.4-0.9,8.2-1c2.8-0.1,5.5,0.2,8.2,0.7s5.3,1.6,7.7,2.8
			c-2.5-1.2-5-2.2-7.7-2.7s-5.4-0.8-8.2-0.6c-2.7,0.1-5.4,0.5-8.1,1.1s-5.3,1.4-7.8,2.5l0,0c-0.1,0.1-0.3,0-0.3-0.1
			C88.8,99.2,88.8,99.1,89,99L89,99z"/>
	</g>
	<g>
		<path class="st3" d="M89.4,100.4c2.7-0.7,5.4-1.2,8.2-1.5c2.8-0.3,5.5-0.3,8.3-0.2s5.5,0.6,8.1,1.6c2.6,1.1,4.9,2.6,6.9,4.5
			c-2-1.9-4.4-3.4-7-4.4s-5.3-1.4-8.1-1.5c-2.8-0.1-5.5,0-8.2,0.3s-5.4,0.8-8.1,1.6c-0.1,0-0.3,0-0.3-0.2
			C89.2,100.6,89.2,100.5,89.4,100.4L89.4,100.4z"/>
	</g>
	<g>
		<path class="st3" d="M89.4,101.8c2.6-0.2,5.2-0.2,7.8-0.1c2.6,0.1,5.2,0.3,7.7,0.7c2.6,0.4,5.1,1,7.5,2c2.3,1,4.7,2.5,5.8,4.9
			c-1.2-2.4-3.5-3.8-5.8-4.8c-2.4-1-4.9-1.5-7.5-1.9s-5.1-0.5-7.7-0.6s-5.2,0-7.7,0.2l0,0c-0.1,0-0.3-0.1-0.3-0.2
			S89.3,101.8,89.4,101.8L89.4,101.8z"/>
	</g>
	<g>
		<path class="st3" d="M73.1,99.7c-2.5-1.1-5.1-1.9-7.8-2.5c-2.7-0.6-5.4-1-8.1-1.1s-5.5,0.1-8.2,0.6s-5.3,1.5-7.7,2.7
			c2.4-1.2,5-2.3,7.7-2.8s5.4-0.8,8.2-0.7c2.8,0.1,5.5,0.4,8.2,1s5.3,1.3,7.9,2.4c0.1,0.1,0.2,0.2,0.1,0.3
			C73.4,99.8,73.2,99.8,73.1,99.7L73.1,99.7L73.1,99.7z"/>
	</g>
	<g>
		<path class="st3" d="M72.8,101.2c-2.6-0.8-5.3-1.3-8.1-1.6c-2.7-0.3-5.5-0.3-8.2-0.3c-2.8,0.1-5.5,0.5-8.1,1.5s-4.9,2.5-7,4.4
			c2-1.9,4.4-3.4,6.9-4.5c2.6-1.1,5.3-1.5,8.1-1.6s5.5-0.1,8.3,0.2c2.8,0.3,5.5,0.8,8.2,1.5c0.1,0,0.2,0.2,0.2,0.3
			S72.9,101.2,72.8,101.2L72.8,101.2z"/>
	</g>
	<g>
		<path class="st3" d="M72.8,102.6c-2.6-0.2-5.1-0.3-7.7-0.2c-2.6,0.1-5.1,0.2-7.7,0.6c-2.5,0.4-5.1,0.9-7.5,1.9
			c-2.3,1-4.7,2.4-5.8,4.8c1.1-2.4,3.5-3.9,5.8-4.9c2.4-1,4.9-1.6,7.5-2s5.1-0.6,7.7-0.7s5.2-0.1,7.8,0.1c0.1,0,0.2,0.1,0.2,0.3
			S73,102.6,72.8,102.6L72.8,102.6L72.8,102.6z"/>
	</g>
	<g>
		<path class="st3" d="M64.4,107.7c1.1,1.5,2.2,3,3.4,4.2c1.2,1.3,2.7,2.4,4.2,3.2c0.8,0.4,1.6,0.7,2.3,0.9c0.8,0.2,1.6,0.3,2.3,0.1
			c1.5-0.2,2.7-1.3,3.5-2.8l0.9-1.5l0.8,1.6c0.4,0.8,0.9,1.5,1.5,2s1.3,0.8,2.1,0.9c0.8,0.1,1.7,0,2.5-0.2s1.7-0.6,2.5-1
			c1.6-0.9,3.1-2,4.6-3.3c1.4-1.3,2.7-2.7,4-4.2c-0.9,1.7-2,3.4-3.3,4.9s-2.8,2.9-4.5,4s-3.7,1.9-6,1.8c-1.1-0.1-2.3-0.5-3.2-1.3
			s-1.5-1.6-2-2.6l1.7,0.1c-0.5,0.9-1.2,1.7-2,2.3c-0.8,0.7-1.9,1.1-3,1.2c-1.1,0.1-2.1,0-3.1-0.3s-1.8-0.8-2.7-1.3
			c-1.6-1.1-3-2.4-4.1-3.9C66,111,65.1,109.4,64.4,107.7z"/>
	</g>
	<path class="st4" d="M74.9,117.1v7.3h6.3V114C81.2,114,79,118.6,74.9,117.1z"/>
	<path class="st4" d="M87.4,117.1v7.3h-6.3V114C81.2,114,83.3,118.6,87.4,117.1z"/>
	<circle class="st2" cx="93.3" cy="88.2" r="7.2"/>
	<circle class="st3" cx="93.3" cy="88.2" r="4.2"/>
	<circle class="st2" cx="68.7" cy="88.2" r="7.2"/>
	<circle class="st3" cx="68.7" cy="88.2" r="4.2"/>
	<circle class="st5" cx="69.3" cy="87.4" r="2.3"/>
	<circle class="st5" cx="94.1" cy="87.4" r="2.3"/>
</g>
</svg>
