<svg id="Layer_1" data-name="Layer 1" xmlns="http://www.w3.org/2000/svg" viewBox="0 0 50.95 59.81"><defs><style>.cls-1{fill:none;stroke:#3c6053;stroke-linecap:round;stroke-miterlimit:10;}.cls-2{fill:#3c6053;}</style></defs><path class="cls-1" d="M7.54,22.64V55.07a58.72,58.72,0,0,0,49.93,0V22.64" transform="translate(-7.03 -1.33)"/><ellipse class="cls-1" cx="25.47" cy="21.24" rx="24.97" ry="4.71"/><path class="cls-2" d="M31.37,24.26a1.36,1.36,0,0,0,2.27,0V9.11s-1.25-1.21-2.27,0Z" transform="translate(-7.03 -1.33)"/><path class="cls-2" d="M34.15,1.33a3,3,0,0,0-.33,1.29c0,1.08.64,1.41.64,2.41a2.36,2.36,0,0,1-1,2,1.94,1.94,0,0,1-1.92-.07,2.41,2.41,0,0,1-.91-2.11,3.53,3.53,0,0,1,1.26-2.51A4.12,4.12,0,0,1,34.15,1.33Z" transform="translate(-7.03 -1.33)"/><path class="cls-1" d="M7.89,23.83C8.44,31.87,9.32,34,10.12,34c.18,0,.64.21,1.61-1.18,3.9-5.58,5.26-.36,5.26.91s2.28,4.56,4.81.28,4.69-3.27,5.45-2,1.33,5,3.16,3.24,2.82-2.33,3.92-2.5A3,3,0,0,1,36,33c2,.9,1.77,3.41,3.85,4.37a2.75,2.75,0,0,0,1.3.32c2.49-.11,3-4.34,6.45-5.69a4.27,4.27,0,0,1,2.31-.3,3.32,3.32,0,0,1,2,1c1.08,1.26.17,3,1.19,3.74a1.69,1.69,0,0,0,1.45.28c1.42-.45,1.16-3.27,2.2-9.31.22-1.27.47-2.54.59-3.47" transform="translate(-7.03 -1.33)"/></svg>