<svg id="Layer_1" data-name="Layer 1" xmlns="http://www.w3.org/2000/svg" viewBox="0 0 265.24 791.16"><defs><style>.cls-1{fill:#c28850;}.cls-2{fill:#bb9779;}</style></defs><path class="cls-1" d="M148.18,97.74s2.64,6.44,6.88,1,18.63-36.91,33.85-54.49,14.15-23.73,9.38-25.07-23,.85-37.69,19.39S139.6,84.51,148.18,97.74Z" transform="translate(-16.41 -18.87)"/><path class="cls-1" d="M159.55,94.27s-5.44,7.64-2.56,10.81,11.58,2.51,18.8-1.11S198,90.64,208.14,70.27s4.24-40.5,1.18-43.47-5.5-1.83-9,6.06S176.57,73.05,159.55,94.27Z" transform="translate(-16.41 -18.87)"/><path class="cls-1" d="M86.47,204.24s-3.39,7.37,2.21,3.71,44.62-36,60-37,19.86,3.86,21,4.72,1.71,0-2.76-4.62-22.36-11.37-47,.29S86.47,204.24,86.47,204.24Z" transform="translate(-16.41 -18.87)"/><path class="cls-1" d="M84.73,218a7.75,7.75,0,0,1,.07-4.24c.78-2.21,2.9-4.17,7-5.46,6.55-2.07,39.33-30.51,59-33.39,4.38-.64,15.15-2,19.48,3.67a10.35,10.35,0,0,1,1.72,3.89c1.87,7.09-2.27,13.62-4.78,17.57a48.39,48.39,0,0,1-7.38,8.76,81.48,81.48,0,0,1-14.56,11.52A82.31,82.31,0,0,1,135,226a63,63,0,0,1-16.5,5.56c-3,.52-19.4,3-28.42-4.94A15.9,15.9,0,0,1,84.73,218Z" transform="translate(-16.41 -18.87)"/><path class="cls-1" d="M141.11,279.23c2.38-6,4.31-6.83,5.37-7a5.12,5.12,0,0,1,3.67,1c3.31,2.22,8.18,5.1,12.33,10.55a40.38,40.38,0,0,1,4.74,8.55,51.79,51.79,0,0,1,3,11.3c.95,5,.58,5.29,1.92,13.36a45.18,45.18,0,0,0,2.38,9.64,30.91,30.91,0,0,0,2.46,5.2c2.19,3.6,4.22,5,10.85,11.86,2.47,2.56,3,3.22,2.8,3.92-.63,2.17-7.54,2.34-12.61,1.42a34.05,34.05,0,0,1-14.45-6.78,48.35,48.35,0,0,1-7.26-6.8,70.11,70.11,0,0,1-15.05-25.13,49.18,49.18,0,0,1-3.12-18.16A42.16,42.16,0,0,1,141.11,279.23Z" transform="translate(-16.41 -18.87)"/><path class="cls-1" d="M152.87,272.08c-1.87-1-2.41-1.32-2.45-1.85,0-.73.81-1.63,3.38-2.71,5-2.11,19.42-.78,32.33,9.41a55.45,55.45,0,0,1,17.91,26c1.71,5,7.27,21.13-.38,34.7-1.58,2.81-4,7.14-7.77,7.48-7.69.69-15.19-15.85-17.38-21.74a60.21,60.21,0,0,1-2.44-8.52c-.91-4.77-.53-6.69-1.27-11.32a48.8,48.8,0,0,0-2.74-10.14,49.36,49.36,0,0,0-10.51-15.46,23.71,23.71,0,0,0-3.05-2.56C157.57,274.7,156.47,274.06,152.87,272.08Z" transform="translate(-16.41 -18.87)"/><path class="cls-1" d="M119.29,503.11s4.52,5.28,6.84-1.2,6.13-40.89,15.07-62.35,6-27,1-26.75-21.57,8-29.7,30.23S107,493.24,119.29,503.11Z" transform="translate(-16.41 -18.87)"/><path class="cls-1" d="M129,496.25s-2.78,9,.95,11.06,11.78-1.24,17.51-6.94,16.93-19.63,20.15-42.14-8.67-39.79-12.51-41.65-5.8,0-6.64,8.57S138.51,470.77,129,496.25Z" transform="translate(-16.41 -18.87)"/><path class="cls-2" d="M134,801.22C94.16,731.1,91.31,679.74,97.37,644.5c4.4-25.55,17.91-67.64,0-81-4.37-3.26-12-6-18.29-3.48-19.29,7.78-3.9,55.41-28.82,73.27-12.84,9.2-23.28,1.12-31,9.83-12.08,13.62,17.67,37.74,25,85.91,5.59,36.87-7,50.87,4.27,65.23C57.41,805.55,78.82,814.1,134,801.22Z" transform="translate(-16.41 -18.87)"/><path class="cls-2" d="M29.09,599.31c.81-23.34,7.92-37.35,17-46,15.37-14.63,36.77-14.18,37.57-24,.48-5.92-6.75-12.49-13.67-14.48-12.88-3.72-23,8.87-27.45,5.49-7.72-5.85,21.12-44.83,9.33-58.74-4.34-5.13-13.56-6.11-19.67-3.29-14.54,6.71-14,36.07-13.09,66.35A368.79,368.79,0,0,0,29.09,599.31Z" transform="translate(-16.41 -18.87)"/><path class="cls-2" d="M264.53,760.82c21.9-36.73-5.62-64.67,12.27-144.31,0,0,5.88-25.77,4.68-61.11-1.28-37.61-9.28-42.55-12.19-43.85-7.82-3.49-20.54.75-26.72,9.31-13.42,18.6,15.76,41.36,8.64,77.16-5.19,26.13-22.59,23.35-32.23,55-10.57,34.75,2.68,63.38-7.08,67.27-5.34,2.13-13.91-4.65-18.29-11.71-9.19-14.82,3.1-28.62,4.24-51.45,1.77-35.31-25.82-38-31.23-81.28-3.87-31,7.33-53.49-4.25-60.67-4.54-2.81-11.87-2.86-16.5.53C122.29,533,171.17,637.6,165.43,640c-4,1.66-25-51.45-40.59-48.41-5.54,1.08-8.35,8.82-9.45,12-10.09,28.91,16.42,59.62,32.1,90.7,12.4,24.57,24.22,61.64,20.67,115.8C229.09,801.45,253.49,779.35,264.53,760.82Z" transform="translate(-16.41 -18.87)"/><path class="cls-2" d="M212.06,632.82c-11-65.33,3-99.2,19.12-118.17,16.59-19.58,45.62-35.41,41.43-46.44-1.92-5-10.09-7.18-16-7.09-25.71.39-43.57,43.94-50.37,40.69-4.08-1.94,1.95-17.72-5.78-23.11-3.79-2.65-8.73-1.31-9.25-1.16-7.13,2-10.26,10.71-11.6,14.43C171.74,513.82,208.56,622.58,212.06,632.82Z" transform="translate(-16.41 -18.87)"/></svg>