<?xml version="1.0" encoding="utf-8"?>
<!-- Generator: Adobe Illustrator 25.2.0, SVG Export Plug-In . SVG Version: 6.00 Build 0)  -->
<svg version="1.1" id="Layer_1" xmlns="http://www.w3.org/2000/svg" xmlns:xlink="http://www.w3.org/1999/xlink" x="0px" y="0px"
	 viewBox="0 0 192.1 67.2" style="enable-background:new 0 0 192.1 67.2;" xml:space="preserve">
<style type="text/css">
	.st0{fill:#487266;}
	.st1{fill:#8FA8BD;}
</style>
<g>
	<g>
		<path class="st0" d="M19.3,5.5l0.1,0.1c0.1,0.1,0.2,0.2,0.2,0.2l9.2,12.8c0.1,0.2,0.3,0.3,0.4,0.2s0.2-0.2,0.2-0.4V6
			c0-0.2,0.1-0.4,0.2-0.6c0.2-0.2,0.4-0.2,0.6-0.2h5.2c0.2,0,0.4,0.1,0.6,0.2c0.2,0.2,0.2,0.4,0.2,0.6v23.9c0,0.2-0.1,0.4-0.2,0.6
			c-0.1,0.2-0.4,0.2-0.6,0.2h-5.2c-0.2,0-0.5-0.1-0.7-0.2c-0.3-0.1-0.5-0.3-0.6-0.5l-9.1-12.8c-0.1-0.1-0.2-0.2-0.4-0.2h-0.1"/>
		<path class="st0" d="M49.1,5.9c0.1-0.2,0.2-0.4,0.5-0.5s0.5-0.2,0.7-0.2h4.9c0.2,0,0.5,0.1,0.7,0.2c0.2,0.2,0.4,0.3,0.5,0.5
			l10.2,23.8c0.1,0.2,0.1,0.4-0.1,0.7c-0.1,0.2-0.4,0.3-0.8,0.3h-6c-0.3,0-0.5-0.1-0.7-0.2s-0.4-0.3-0.5-0.5l-0.9-2.1
			c-0.1-0.2-0.3-0.4-0.5-0.5s-0.4-0.2-0.7-0.2H49c-0.3,0-0.5,0.1-0.7,0.2s-0.4,0.3-0.5,0.5l-1,2.1c-0.1,0.2-0.2,0.4-0.5,0.5
			s-0.5,0.2-0.7,0.2h-6c-0.1,0-0.2,0-0.4-0.1c0,0-0.1,0-0.2-0.1s-0.1-0.2-0.2-0.3c0-0.1,0-0.3,0.1-0.5L49.1,5.9z M51.2,21.2h3.1
			c0.2,0,0.4-0.1,0.5-0.2s0.1-0.3,0-0.5c-0.2-0.6-0.5-1.3-0.8-2c-0.3-0.8-0.6-1.5-0.9-2.2C53,16.1,52.9,16,52.8,16
			c-0.1,0-0.2,0.1-0.3,0.3l-1.8,4.2c-0.1,0.2-0.1,0.4,0,0.5C50.7,21.1,50.9,21.2,51.2,21.2z"/>
		<path class="st0" d="M83.2,11.6h-4.9c-0.2,0-0.4,0.1-0.6,0.2c-0.2,0.2-0.2,0.4-0.2,0.6v17.5c0,0.2-0.1,0.4-0.2,0.6
			c-0.2,0.2-0.4,0.2-0.6,0.2h-5.2c-0.2,0-0.4-0.1-0.6-0.2s-0.2-0.4-0.2-0.6V12.4c0-0.2-0.1-0.4-0.2-0.6c-0.4-0.1-0.6-0.2-0.9-0.2h-5
			c-0.2,0-0.4-0.1-0.6-0.2s-0.2-0.4-0.2-0.6V6c0-0.2,0.1-0.4,0.2-0.6c0.1-0.2,0.4-0.2,0.6-0.2h18.5c0.3,0,0.5,0.1,0.6,0.2
			c0.2,0.2,0.2,0.4,0.2,0.6v4.8c0,0.2-0.1,0.4-0.2,0.6C83.6,11.5,83.4,11.6,83.2,11.6z"/>
		<path class="st0" d="M86.7,6c0-0.2,0.1-0.4,0.2-0.6c0.2-0.2,0.4-0.2,0.6-0.2h5.3c0.2,0,0.4,0.1,0.6,0.2s0.2,0.4,0.2,0.6v14.2
			c0,0.9,0.2,1.7,0.4,2.3c0.3,0.6,0.7,1.1,1.1,1.4s0.9,0.6,1.4,0.7s0.9,0.2,1.3,0.2s0.8-0.1,1.3-0.2s0.9-0.4,1.4-0.7
			c0.4-0.3,0.8-0.8,1.1-1.4c0.3-0.6,0.4-1.3,0.4-2.3V6c0-0.2,0.1-0.4,0.2-0.6s0.4-0.2,0.6-0.2h5.3c0.2,0,0.4,0.1,0.6,0.2
			c0.2,0.2,0.2,0.4,0.2,0.6v14.2c0,1.7-0.3,3.2-0.8,4.5s-1.3,2.5-2.2,3.5s-2.2,1.7-3.5,2.2c-1.4,0.5-2.9,0.8-4.6,0.8
			s-3.2-0.3-4.6-0.8s-2.6-1.3-3.5-2.2c-1-1-1.7-2.1-2.3-3.5c-0.5-1.3-0.8-2.9-0.8-4.5L86.7,6L86.7,6z"/>
		<path class="st0" d="M120.4,30.8h-5.3c-0.2,0-0.4-0.1-0.6-0.2s-0.2-0.4-0.2-0.6V6c0-0.2,0.1-0.4,0.2-0.6s0.4-0.2,0.6-0.2H126
			c1.4,0,2.6,0.2,3.7,0.7c1.1,0.5,2.1,1.1,2.9,1.9s1.4,1.8,1.9,2.9s0.7,2.4,0.7,3.7c0,0.8-0.1,1.5-0.3,2.2c-0.2,0.7-0.4,1.4-0.8,2.1
			c-0.3,0.7-0.7,1.2-1.2,1.8s-0.9,1-1.5,1.3c-0.2,0.1-0.3,0.3-0.4,0.5c-0.1,0.2,0,0.4,0.1,0.6c0.9,1.2,1.8,2.4,2.8,3.6
			s1.9,2.4,2.6,3.4c0.1,0.2,0.2,0.4,0.1,0.6c-0.1,0.2-0.2,0.3-0.5,0.3h-6.5c-0.2,0-0.5-0.1-0.8-0.2s-0.5-0.3-0.6-0.5
			c-0.7-1-1.5-2-2.2-3s-1.5-2-2.2-3c-0.1-0.2-0.3-0.3-0.6-0.5s-0.5-0.2-0.7-0.2h-0.4c-0.2,0-0.4,0.1-0.6,0.2
			c-0.2,0.2-0.2,0.4-0.2,0.6v5.7c0,0.2-0.1,0.4-0.2,0.6S120.6,30.8,120.4,30.8z M122.1,17h3.7c0.3,0,0.6,0,0.9-0.2
			c0.3-0.1,0.6-0.3,0.8-0.5s0.5-0.5,0.6-0.8c0.2-0.3,0.2-0.7,0.2-1.2c0-0.2,0-0.5-0.1-0.8s-0.2-0.6-0.4-0.9s-0.5-0.5-0.8-0.7
			s-0.8-0.3-1.2-0.3h-3.7c-0.2,0-0.4,0.1-0.6,0.2c-0.2,0.2-0.2,0.4-0.2,0.6v3.7c0,0.2,0.1,0.4,0.2,0.6S121.8,17,122.1,17z"/>
		<path class="st0" d="M146.4,12.4v1.5c0,0.2,0.1,0.4,0.2,0.6c0.2,0.2,0.4,0.2,0.6,0.2h9.5c0.2,0,0.4,0.1,0.6,0.2
			c0.2,0.2,0.2,0.4,0.2,0.6v4.8c0,0.2-0.1,0.4-0.2,0.6c-0.2,0.2-0.4,0.2-0.6,0.2h-9.5c-0.2,0-0.4,0.1-0.6,0.2
			c-0.2,0.2-0.2,0.4-0.2,0.6v1.3c0,0.2,0.1,0.4,0.2,0.6c0.2,0.2,0.4,0.2,0.6,0.2h10.9c0.2,0,0.4,0.1,0.6,0.2
			c0.2,0.2,0.2,0.4,0.2,0.6v4.8c0,0.2-0.1,0.4-0.2,0.6c-0.2,0.2-0.4,0.2-0.6,0.2h-17.8c-0.2,0-0.4-0.1-0.6-0.2s-0.2-0.4-0.2-0.6v-24
			c0-0.2,0.1-0.4,0.2-0.6s0.4-0.2,0.6-0.2h17.8c0.2,0,0.4,0.1,0.6,0.2c0.2,0.2,0.2,0.4,0.2,0.6v4.8c0,0.2-0.1,0.4-0.2,0.6
			c-0.2,0.2-0.4,0.2-0.6,0.2h-10.9c-0.2,0-0.4,0.1-0.6,0.2C146.4,12,146.4,12.2,146.4,12.4z"/>
		<path class="st0" d="M164.4,15.3c-0.2,0.1-0.4,0.1-0.7,0s-0.5-0.2-0.6-0.4l-0.6-0.9c-0.1-0.2-0.2-0.4-0.1-0.6s0.1-0.4,0.3-0.6
			c0.3-0.2,0.5-0.5,0.7-0.7s0.4-0.5,0.6-0.7c0.1-0.2,0.2-0.4,0.1-0.6c-0.1-0.2-0.2-0.3-0.4-0.5c-0.4-0.3-0.7-0.6-0.9-1.1
			s-0.3-1-0.4-1.5c-0.1-1,0.3-1.8,0.9-2.5c0.7-0.7,1.5-1,2.5-1.1c0.6,0,1.1,0.1,1.6,0.3s0.9,0.5,1.2,0.9s0.6,0.8,0.8,1.3
			s0.3,1.1,0.3,1.6c0,1.5-0.4,2.9-1.3,4.1C167.5,13.6,166.1,14.6,164.4,15.3z"/>
		<path class="st0" d="M174.9,22c1.3,0.8,2.5,1.5,3.8,1.9c1.2,0.5,2.4,0.7,3.5,0.7c1,0,1.8-0.2,2.3-0.4s0.8-0.7,0.8-1.3
			c0-0.3-0.1-0.5-0.4-0.7s-0.5-0.3-0.9-0.4s-0.8-0.2-1.4-0.3c-0.5-0.1-1-0.2-1.6-0.3c-0.5-0.1-1.1-0.2-1.8-0.3s-1.4-0.3-2.1-0.6
			c-0.7-0.2-1.4-0.5-2.1-0.9c-0.7-0.4-1.4-0.8-1.9-1.4s-1-1.3-1.4-2.1c-0.3-0.8-0.5-1.8-0.5-2.8c0-1.6,0.3-2.9,0.9-4
			c0.6-1,1.4-1.9,2.4-2.5s2.1-1,3.2-1.3c1.2-0.2,2.3-0.4,3.5-0.4c2,0,3.7,0.3,5.3,0.9s3,1.4,4.5,2.5c0.2,0.2,0.3,0.4,0.3,0.6
			c0,0.2,0,0.4-0.2,0.6l-2.7,3.9c-0.1,0.2-0.3,0.3-0.6,0.3s-0.4,0-0.6-0.1c-1.2-0.8-2.3-1.3-3.3-1.6s-2-0.5-2.8-0.5
			c-0.3,0-0.6,0-0.9,0c-0.3,0-0.7,0.1-1,0.1c-0.3,0.1-0.6,0.2-0.8,0.4s-0.3,0.4-0.3,0.8s0.2,0.6,0.7,0.9c0.5,0.3,1.1,0.5,1.7,0.7
			c0.6,0.2,1.2,0.3,1.8,0.4c0.6,0.1,1,0.2,1.1,0.2c0.8,0.2,1.8,0.4,2.8,0.7s1.9,0.8,2.8,1.4s1.6,1.4,2.2,2.4c0.6,1,0.9,2.2,0.9,3.7
			c0,1.4-0.2,2.6-0.7,3.6s-1.2,1.8-2.1,2.5s-1.9,1.1-3.1,1.4c-1.2,0.3-2.6,0.5-4.1,0.5c-1.2,0-2.3-0.1-3.4-0.3
			c-1.1-0.2-2-0.5-2.9-0.8s-1.8-0.8-2.5-1.2c-0.8-0.5-1.5-1-2.1-1.5c-0.2-0.1-0.3-0.3-0.3-0.6s0-0.5,0.2-0.7l2.7-3.9
			c0.1-0.2,0.3-0.3,0.6-0.3C174.5,21.8,174.7,21.8,174.9,22z"/>
		<path class="st1" d="M15.1,58c1.3,0.8,2.5,1.5,3.8,1.9c1.2,0.5,2.4,0.7,3.5,0.7c1,0,1.8-0.2,2.3-0.4c0.5-0.3,0.8-0.7,0.8-1.3
			c0-0.3-0.1-0.5-0.3-0.7s-0.5-0.3-0.9-0.4s-0.8-0.2-1.3-0.3s-1-0.2-1.6-0.3c-0.5-0.1-1.1-0.2-1.8-0.3c-0.7-0.1-1.4-0.3-2.1-0.6
			c-0.7-0.2-1.4-0.6-2.1-0.9C14.7,55,14,54.6,13.5,54s-1-1.3-1.4-2.1s-0.5-1.8-0.5-2.8c0-1.6,0.3-2.9,0.9-4s1.4-1.9,2.4-2.5
			s2-1.1,3.2-1.3s2.3-0.4,3.5-0.4c2,0,3.7,0.3,5.3,0.9s3,1.4,4.5,2.5c0.2,0.2,0.3,0.4,0.3,0.6s0,0.4-0.2,0.6l-2.7,3.9
			c-0.1,0.2-0.3,0.3-0.6,0.3c-0.2,0.1-0.4,0-0.6-0.1c-1.2-0.8-2.3-1.3-3.3-1.6s-2-0.5-2.8-0.5c-0.3,0-0.5,0-0.9,0
			c-0.3,0-0.7,0.1-1,0.1s-0.5,0.2-0.8,0.4c-0.2,0.2-0.3,0.4-0.3,0.8c0,0.3,0.2,0.6,0.7,0.9s1.1,0.5,1.7,0.7s1.2,0.3,1.8,0.4
			s1,0.2,1.1,0.2c0.8,0.2,1.8,0.4,2.8,0.7s1.9,0.8,2.8,1.4s1.6,1.4,2.2,2.4c0.6,1,0.9,2.2,0.9,3.7c0,1.4-0.2,2.6-0.7,3.6
			s-1.2,1.8-2,2.5s-1.9,1.1-3.2,1.4s-2.6,0.5-4.1,0.5c-1.2,0-2.4-0.1-3.4-0.3c-1-0.2-2-0.5-2.9-0.8s-1.8-0.8-2.5-1.2
			c-0.8-0.5-1.5-1-2.1-1.5c-0.2-0.1-0.3-0.3-0.3-0.6c0-0.2,0-0.5,0.2-0.7l2.7-3.9c0.1-0.2,0.3-0.3,0.6-0.3
			C14.7,57.8,14.9,57.8,15.1,58z"/>
		<path class="st1" d="M32.3,42.2c-0.1-0.3-0.1-0.5,0-0.7s0.3-0.3,0.5-0.3h5.7c0.2,0,0.5,0.1,0.7,0.2c0.2,0.1,0.3,0.3,0.4,0.5
			l4,11.7c0.1,0.2,0.2,0.3,0.4,0.3s0.3-0.1,0.4-0.3L48.2,42c0.1-0.2,0.2-0.4,0.4-0.6c0.2-0.2,0.4-0.2,0.7-0.2H54
			c0.3,0,0.5,0.1,0.7,0.2s0.3,0.3,0.4,0.6L59,53.6c0.1,0.2,0.2,0.3,0.4,0.3s0.3-0.1,0.4-0.3l4-11.7c0.1-0.2,0.2-0.4,0.5-0.5
			s0.4-0.2,0.7-0.2h5.7c0.3,0,0.4,0.1,0.5,0.3s0.1,0.4,0,0.6L62.7,66c-0.1,0.2-0.2,0.4-0.5,0.6s-0.4,0.2-0.7,0.2H57
			c-0.3,0-0.5-0.1-0.7-0.2S56,66.3,55.9,66l-3.8-11.7C52,54.1,51.9,54,51.7,54s-0.3,0.1-0.4,0.3L47.5,66c-0.1,0.2-0.2,0.4-0.4,0.6
			s-0.4,0.2-0.7,0.2h-4.5c-0.3,0-0.5-0.1-0.7-0.3c-0.2-0.2-0.3-0.4-0.4-0.5L32.3,42.2z"/>
		<path class="st1" d="M81.1,48.4v1.5c0,0.2,0.1,0.4,0.2,0.6c0.2,0.2,0.4,0.2,0.6,0.2h9.5c0.2,0,0.4,0.1,0.6,0.2
			c0.2,0.2,0.2,0.4,0.2,0.6v4.8c0,0.2-0.1,0.4-0.2,0.6c-0.2,0.2-0.4,0.2-0.6,0.2h-9.5c-0.2,0-0.4,0.1-0.6,0.2
			c-0.1,0.3-0.2,0.5-0.2,0.8v1.3c0,0.2,0.1,0.4,0.2,0.6c0.2,0.2,0.4,0.2,0.6,0.2h10.9c0.2,0,0.4,0.1,0.6,0.2
			c0.2,0.2,0.2,0.4,0.2,0.6v4.8c0,0.2-0.1,0.4-0.2,0.6c-0.2,0.2-0.4,0.2-0.6,0.2H75c-0.2,0-0.4-0.1-0.6-0.2s-0.2-0.4-0.2-0.6V42
			c0-0.2,0.1-0.4,0.2-0.6s0.4-0.2,0.6-0.2h17.8c0.2,0,0.4,0.1,0.6,0.2c0.2,0.2,0.2,0.4,0.2,0.6v4.8c0,0.2-0.1,0.4-0.2,0.6
			c-0.2,0.2-0.4,0.2-0.6,0.2H81.9c-0.2,0-0.4,0.1-0.6,0.2C81.1,48,81.1,48.2,81.1,48.4z"/>
		<path class="st1" d="M105,48.4v1.5c0,0.2,0.1,0.4,0.2,0.6c0.2,0.2,0.4,0.2,0.6,0.2h9.5c0.2,0,0.4,0.1,0.6,0.2
			c0.2,0.2,0.3,0.4,0.3,0.6v4.8c0,0.2-0.1,0.4-0.2,0.6c-0.2,0.2-0.4,0.2-0.6,0.2h-9.5c-0.2,0-0.4,0.1-0.6,0.2
			c-0.2,0.2-0.2,0.4-0.2,0.6v1.3c0,0.2,0.1,0.4,0.2,0.6c0.2,0.2,0.4,0.2,0.6,0.2h10.9c0.2,0,0.4,0.1,0.6,0.2
			c0.2,0.2,0.2,0.4,0.2,0.6v4.8c0,0.2-0.1,0.4-0.2,0.6c-0.2,0.2-0.4,0.2-0.6,0.2H99c-0.2,0-0.4-0.1-0.6-0.2s-0.2-0.4-0.2-0.6V42
			c0-0.2,0.1-0.4,0.2-0.6s0.4-0.2,0.6-0.2h17.8c0.2,0,0.4,0.1,0.6,0.2c0.2,0.2,0.2,0.4,0.2,0.6v4.8c0,0.2-0.1,0.4-0.2,0.6
			c-0.2,0.2-0.4,0.2-0.6,0.2h-10.9c-0.2,0-0.4,0.1-0.6,0.2C105,48,105,48.2,105,48.4z"/>
		<path class="st1" d="M138.7,47.6h-4.9c-0.2,0-0.4,0.1-0.6,0.2c-0.2,0.2-0.2,0.4-0.2,0.6v17.5c0,0.2-0.1,0.4-0.2,0.6
			s-0.4,0.2-0.6,0.2H127c-0.2,0-0.4-0.1-0.6-0.2c-0.2-0.2-0.2-0.4-0.2-0.6V48.4c0-0.2-0.1-0.4-0.2-0.6c-0.1-0.2-0.4-0.2-0.6-0.2h-5
			c-0.2,0-0.4-0.1-0.6-0.2s-0.2-0.4-0.2-0.6V42c0-0.2,0.1-0.4,0.2-0.6s0.4-0.2,0.6-0.2h18.5c0.3,0,0.5,0.1,0.6,0.2s0.2,0.4,0.2,0.6
			v4.8c0,0.2-0.1,0.4-0.2,0.6S139,47.6,138.7,47.6z"/>
		<path class="st1" d="M144.1,58c1.3,0.8,2.5,1.5,3.8,1.9c1.2,0.5,2.4,0.7,3.5,0.7c1,0,1.8-0.2,2.3-0.4s0.8-0.7,0.8-1.3
			c0-0.3-0.1-0.5-0.4-0.7s-0.5-0.3-0.9-0.4s-0.8-0.2-1.4-0.3c-0.5-0.1-1-0.2-1.6-0.3c-0.5-0.1-1.1-0.2-1.8-0.3s-1.4-0.3-2.1-0.6
			c-0.7-0.2-1.4-0.6-2.1-0.9c-0.7-0.4-1.4-0.8-1.9-1.4s-1-1.3-1.4-2.1c-0.3-0.8-0.5-1.8-0.5-2.8c0-1.6,0.3-2.9,0.9-4
			c0.6-1.1,1.4-1.9,2.4-2.5s2.1-1.1,3.2-1.3c1.2-0.2,2.3-0.4,3.5-0.4c2,0,3.7,0.3,5.3,0.9s3,1.4,4.5,2.5c0.2,0.2,0.3,0.4,0.3,0.6
			s0,0.4-0.2,0.6l-2.7,3.9c-0.1,0.2-0.3,0.3-0.6,0.3c-0.2,0.1-0.4,0-0.6-0.1c-1.2-0.8-2.3-1.3-3.3-1.6s-2-0.5-2.8-0.5
			c-0.3,0-0.6,0-0.9,0c-0.3,0-0.7,0.1-1,0.1s-0.6,0.2-0.8,0.4s-0.3,0.4-0.3,0.8c0,0.3,0.2,0.6,0.7,0.9s1.1,0.5,1.7,0.7
			c0.6,0.2,1.2,0.3,1.8,0.4s1,0.2,1.1,0.2c0.8,0.2,1.8,0.4,2.8,0.7s1.9,0.8,2.8,1.4s1.6,1.4,2.2,2.4c0.6,1,0.9,2.2,0.9,3.7
			c0,1.4-0.2,2.6-0.7,3.6s-1.2,1.8-2.1,2.5s-1.9,1.1-3.1,1.4c-1.2,0.3-2.6,0.5-4.1,0.5c-1.2,0-2.3-0.1-3.4-0.3
			c-1.1-0.2-2-0.5-2.9-0.8s-1.8-0.8-2.5-1.2c-0.8-0.5-1.5-1-2.1-1.5c-0.2-0.1-0.3-0.3-0.3-0.6s0-0.5,0.2-0.7l2.7-3.9
			c0.1-0.2,0.3-0.3,0.6-0.3C143.7,57.8,143.9,57.8,144.1,58z"/>
	</g>
	<path class="st0" d="M12,23.2h5.1c0.5,0,1,0.4,1,1v5.6c0,0.5-0.4,0.9-1,0.9H12c-0.5,0-1-0.4-1-0.9v-5.6
		C11.1,23.6,11.5,23.2,12,23.2z"/>
	<path class="st0" d="M12,14.2h5.1c0.5,0,1,0.4,1,1v5.6c0,0.5-0.4,1-1,1H12c-0.5,0-1-0.4-1-1v-5.6C11.1,14.6,11.5,14.2,12,14.2z"/>
	<path class="st0" d="M12,5.1h5.1c0.5,0,1,0.4,1,1v5.6c0,0.5-0.4,1-1,1H12c-0.5,0-1-0.4-1-1V6.1C11.1,5.6,11.5,5.1,12,5.1z"/>
	<path class="st0" d="M10,24.5c0,0-2.1-7-10-8.1C0,16.4,2,21.7,10,24.5z"/>
	<path class="st0" d="M9.5,20.9c0,0-3.5-3.5-1.6-7.7C7.9,13.2,11.3,16.6,9.5,20.9z"/>
	<path class="st0" d="M10.5,12.7c0,0-5.3-1.5-5.4-6.9C5.1,5.8,10.4,6.8,10.5,12.7z"/>
	<path class="st0" d="M9.8,7.4c0,0-3.3-3.4-1.5-7.4C8.3,0,11.6,3.2,9.8,7.4z"/>
</g>
</svg>
