<svg id="Layer_1" data-name="Layer 1" xmlns="http://www.w3.org/2000/svg" viewBox="0 0 488 247"><defs><style>.cls-1{fill:#afc5b7;}.cls-2,.cls-6{fill:none;}.cls-2{stroke:#121212;}.cls-2,.cls-5,.cls-6{stroke-miterlimit:10;}.cls-3{fill:#487266;}.cls-4{fill:#8fa8bd;}.cls-5{fill:#eaf2ee;}.cls-5,.cls-6{stroke:#3c6053;}.cls-7{opacity:0.5;}</style></defs><rect class="cls-1" x="0.5" y="0.5" width="487" height="246" rx="17.52"/><rect class="cls-2" x="0.5" y="0.5" width="487" height="246" rx="17.52"/><rect class="cls-3" x="37.38" y="50.82" width="6.97" height="7.51" rx="0.95"/><rect class="cls-3" x="37.38" y="41.78" width="6.97" height="7.51" rx="0.95"/><rect class="cls-3" x="37.38" y="32.74" width="6.97" height="7.51" rx="0.95"/><path class="cls-3" d="M35.85,51.57a12.26,12.26,0,0,0-10-8.07S27.85,48.84,35.85,51.57Z" transform="translate(0.5 0.5)"/><path class="cls-3" d="M35.34,48s-3.45-3.54-1.56-7.69C33.78,40.32,37.19,43.68,35.34,48Z" transform="translate(0.5 0.5)"/><path class="cls-3" d="M36.3,39.75S31,38.29,30.88,32.87A6.87,6.87,0,0,1,36.3,39.75Z" transform="translate(0.5 0.5)"/><path class="cls-3" d="M35.63,34.45s-3.3-3.4-1.5-7.36C34.13,27.09,37.39,30.3,35.63,34.45Z" transform="translate(0.5 0.5)"/><path class="cls-3" d="M45.93,32.34H50.7a9.85,9.85,0,0,1,3.72.68,8.33,8.33,0,0,1,2.91,1.89A8.63,8.63,0,0,1,59.2,37.8a9.55,9.55,0,0,1,.68,3.69,9.27,9.27,0,0,1-.26,2.21,8.88,8.88,0,0,1-.75,2.06,8.32,8.32,0,0,1-1.14,1.76,6.43,6.43,0,0,1-1.5,1.31,1,1,0,0,0-.37.5.66.66,0,0,0,.13.58q1.32,1.74,2.78,3.58c1,1.23,1.84,2.35,2.61,3.37a.64.64,0,0,1,.1.61.43.43,0,0,1-.45.33H54.56a1.73,1.73,0,0,1-.75-.19,1.65,1.65,0,0,1-.61-.47c-.74-1-1.47-2-2.2-3s-1.45-2-2.16-3a1.58,1.58,0,0,0-.59-.47,1.56,1.56,0,0,0-.73-.19h-.76a.82.82,0,0,0-.59.24.81.81,0,0,0-.24.59h0m.83-7.23h3.67a2.77,2.77,0,0,0,.87-.16,2.71,2.71,0,0,0,.83-.49,2.57,2.57,0,0,0,.62-.82A2.52,2.52,0,0,0,53,41.49a3.31,3.31,0,0,0-.12-.82,2.92,2.92,0,0,0-.41-.9,2.38,2.38,0,0,0-.8-.74,2.43,2.43,0,0,0-1.23-.29H46.76a.82.82,0,0,0-.83.83v3.69a.81.81,0,0,0,.24.59A.79.79,0,0,0,46.76,44.1Z" transform="translate(0.5 0.5)"/><path class="cls-3" d="M70.91,39.57V41a.8.8,0,0,0,.25.6.79.79,0,0,0,.59.24h9.42a.82.82,0,0,1,.84.83v4.81a.82.82,0,0,1-.84.83H71.75a.85.85,0,0,0-.84.84V50.5a.78.78,0,0,0,.25.59.79.79,0,0,0,.59.24H82.57a.81.81,0,0,1,.59.24.85.85,0,0,1,.24.6V57a.82.82,0,0,1-.83.83H64.86a.79.79,0,0,1-.59-.24A.78.78,0,0,1,64,57V33.17a.78.78,0,0,1,.25-.59.79.79,0,0,1,.59-.24H82.57a.82.82,0,0,1,.83.83V37.9a.81.81,0,0,1-.24.59.78.78,0,0,1-.59.25H71.75a.84.84,0,0,0-.84.83Z" transform="translate(0.5 0.5)"/><path class="cls-3" d="M86,33.35a.8.8,0,0,1,0-.72.54.54,0,0,1,.54-.29h5.67a1.11,1.11,0,0,1,.66.22,1.08,1.08,0,0,1,.42.54l4,11.59c.07.23.2.34.37.34s.3-.11.36-.34l3.83-11.55a1.06,1.06,0,0,1,.42-.58,1.16,1.16,0,0,1,.7-.22h4.62a1.16,1.16,0,0,1,.7.22,1.06,1.06,0,0,1,.42.58l3.82,11.62c.07.23.19.35.37.35s.31-.12.4-.35l4-11.66a1.28,1.28,0,0,1,.45-.54,1.16,1.16,0,0,1,.7-.22H124a.53.53,0,0,1,.53.29.81.81,0,0,1,0,.61L116.14,57a1.28,1.28,0,0,1-.45.58,1.16,1.16,0,0,1-.7.22H110.5a1.16,1.16,0,0,1-.69-.22,1.1,1.1,0,0,1-.42-.58l-3.83-11.58c-.07-.23-.19-.35-.36-.35s-.3.12-.37.35L101,57a1.1,1.1,0,0,1-.42.58,1.16,1.16,0,0,1-.7.22H95.4a1,1,0,0,1-.69-.26,1,1,0,0,1-.38-.54Z" transform="translate(0.5 0.5)"/><path class="cls-3" d="M131.52,33.14a1.27,1.27,0,0,1,.47-.54,1.25,1.25,0,0,1,.71-.23h4.87a1.21,1.21,0,0,1,.68.23,1.27,1.27,0,0,1,.47.54L148.88,56.8a.71.71,0,0,1,0,.66.78.78,0,0,1-.75.34h-6a1.24,1.24,0,0,1-.71-.22,1.63,1.63,0,0,1-.51-.54L140,55a1.51,1.51,0,0,0-.5-.54,1.19,1.19,0,0,0-.68-.22h-7.34a1.24,1.24,0,0,0-.71.22,1.27,1.27,0,0,0-.47.54l-1,2.09a1.27,1.27,0,0,1-.47.54,1.16,1.16,0,0,1-.67.22h-6a1,1,0,0,1-.36-.07.63.63,0,0,1-.47-.55.79.79,0,0,1,.1-.49Zm2,15.13h3.1a.54.54,0,0,0,.5-.23.47.47,0,0,0,0-.53c-.24-.58-.51-1.26-.84-2l-.9-2.17c-.1-.21-.2-.32-.32-.32s-.22.11-.31.32l-1.74,4.21a.55.55,0,0,0,0,.53A.55.55,0,0,0,133.57,48.27Z" transform="translate(0.5 0.5)"/><path class="cls-3" d="M156,57.8h-5.21a.81.81,0,0,1-.59-.24A.78.78,0,0,1,150,57V33.17a.78.78,0,0,1,.25-.59.81.81,0,0,1,.59-.24h10.82a9.85,9.85,0,0,1,3.72.68,8.33,8.33,0,0,1,2.91,1.89,8.81,8.81,0,0,1,1.88,2.89,9.74,9.74,0,0,1,.67,3.69,9.71,9.71,0,0,1-1,4.27,8.76,8.76,0,0,1-1.15,1.76,6.43,6.43,0,0,1-1.5,1.31.93.93,0,0,0-.36.5.63.63,0,0,0,.12.58q1.32,1.74,2.78,3.58c1,1.23,1.85,2.35,2.61,3.37a.64.64,0,0,1,.1.61.43.43,0,0,1-.45.33h-6.47a1.73,1.73,0,0,1-.75-.19,1.65,1.65,0,0,1-.61-.47c-.74-1-1.47-2-2.19-3s-1.45-2-2.17-3a1.58,1.58,0,0,0-.59-.47,1.55,1.55,0,0,0-.72-.19h-.77a.82.82,0,0,0-.59.24.81.81,0,0,0-.24.59V57a.81.81,0,0,1-.24.59A.83.83,0,0,1,156,57.8Zm1.67-13.7h3.67a2.77,2.77,0,0,0,.87-.16,2.57,2.57,0,0,0,1.45-1.31,2.52,2.52,0,0,0,.25-1.14,3.37,3.37,0,0,0-.13-.82,2.92,2.92,0,0,0-.41-.9,2.38,2.38,0,0,0-.8-.74,2.43,2.43,0,0,0-1.23-.29h-3.67a.82.82,0,0,0-.83.83v3.69a.81.81,0,0,0,.24.59A.79.79,0,0,0,157.71,44.1Z" transform="translate(0.5 0.5)"/><path class="cls-3" d="M175.08,57V33.17a.82.82,0,0,1,.83-.83h9.5a12.66,12.66,0,0,1,8.94,3.2,11.36,11.36,0,0,1,2.86,4.14,15.52,15.52,0,0,1,0,10.8,11.35,11.35,0,0,1-2.86,4.16,11.87,11.87,0,0,1-4,2.36,14.54,14.54,0,0,1-5,.8h-9.5a.82.82,0,0,1-.83-.83Zm7.72-5.57h2.61a9,9,0,0,0,2-.24,4.66,4.66,0,0,0,1.88-.92,5,5,0,0,0,1.37-1.92,8.07,8.07,0,0,0,.54-3.21,8.09,8.09,0,0,0-.54-3.22A4.82,4.82,0,0,0,189.29,40a4.72,4.72,0,0,0-1.88-.92,8.74,8.74,0,0,0-2-.24H182.8a.82.82,0,0,0-.83.83V50.57a.82.82,0,0,0,.83.83Z" transform="translate(0.5 0.5)"/><path class="cls-3" d="M204.41,49.07A20,20,0,0,0,208.13,51a9.88,9.88,0,0,0,3.45.69,5,5,0,0,0,2.33-.43,1.42,1.42,0,0,0,.8-1.31.84.84,0,0,0-.35-.71,3.16,3.16,0,0,0-.92-.44,11.55,11.55,0,0,0-1.34-.28c-.51-.06-1-.16-1.57-.27l-1.79-.33a16,16,0,0,1-2.1-.56,15.33,15.33,0,0,1-2.14-.92A7.35,7.35,0,0,1,202.6,45a6.72,6.72,0,0,1-1.34-2.07,7.21,7.21,0,0,1-.5-2.84,7.54,7.54,0,0,1,.94-4,7.38,7.38,0,0,1,2.38-2.49,9.63,9.63,0,0,1,3.22-1.29,17.27,17.27,0,0,1,3.44-.36,15,15,0,0,1,5.24.85,16.74,16.74,0,0,1,4.43,2.49.88.88,0,0,1,.14,1.22l-2.71,3.86a1,1,0,0,1-.56.35.76.76,0,0,1-.62-.14A14.73,14.73,0,0,0,213.35,39a9.77,9.77,0,0,0-2.82-.47l-.88,0a4.19,4.19,0,0,0-1,.14,1.8,1.8,0,0,0-.75.4,1,1,0,0,0-.3.77c0,.32.25.61.74.87a9.69,9.69,0,0,0,1.67.66,16.67,16.67,0,0,0,1.8.43c.58.11,1,.17,1.12.19a26.34,26.34,0,0,1,2.75.72,9.9,9.9,0,0,1,2.8,1.39,7.68,7.68,0,0,1,2.19,2.4,7.1,7.1,0,0,1,.89,3.71,8.24,8.24,0,0,1-.73,3.59,6.63,6.63,0,0,1-2,2.49,9,9,0,0,1-3.13,1.45,16.43,16.43,0,0,1-4,.47,17.93,17.93,0,0,1-3.38-.3,16.85,16.85,0,0,1-2.92-.82,14.73,14.73,0,0,1-2.52-1.23,19.76,19.76,0,0,1-2.14-1.51.81.81,0,0,1-.32-.58.9.9,0,0,1,.18-.64l2.68-3.86a.84.84,0,0,1,.55-.35A.86.86,0,0,1,204.41,49.07Z" transform="translate(0.5 0.5)"/><rect class="cls-1" x="46.18" y="39.48" width="0.74" height="4.68"/><path class="cls-4" d="M61.14,85.57a19.47,19.47,0,0,1-2.21,2.94,12.68,12.68,0,0,1-2.71,2.25A13.61,13.61,0,0,1,52.9,92.2a15,15,0,0,1-4,.51,13,13,0,0,1-5.17-1,13.75,13.75,0,0,1-4.23-2.8,12.73,12.73,0,0,1-2.84-4.14,12.85,12.85,0,0,1,0-10.13,12.73,12.73,0,0,1,2.84-4.14,13.75,13.75,0,0,1,4.23-2.8,13,13,0,0,1,5.17-1,15.23,15.23,0,0,1,4.1.51,12.73,12.73,0,0,1,3.31,1.45A12.86,12.86,0,0,1,59,70.86a22.46,22.46,0,0,1,2.19,2.92.66.66,0,0,1,.07.58.72.72,0,0,1-.42.45L55.9,76.74a.92.92,0,0,1-.69,0,1,1,0,0,1-.52-.41,7.21,7.21,0,0,0-2.42-2.43,6.46,6.46,0,0,0-3.41-.85,5.62,5.62,0,0,0-2.47.56,6.52,6.52,0,0,0-2,1.47A6.61,6.61,0,0,0,43,77.2a6.75,6.75,0,0,0,0,5,6.37,6.37,0,0,0,1.35,2.09,6.63,6.63,0,0,0,2,1.45,5.62,5.62,0,0,0,2.47.56,6.57,6.57,0,0,0,3.43-.92A7,7,0,0,0,54.72,83a1.07,1.07,0,0,1,.5-.41.89.89,0,0,1,.68,0l4.89,1.93a.74.74,0,0,1,.42.43A.72.72,0,0,1,61.14,85.57Z" transform="translate(0.5 0.5)"/><path class="cls-4" d="M70.11,67.81a1.3,1.3,0,0,1,1.17-.76h4.83a1.24,1.24,0,0,1,.67.22,1.3,1.3,0,0,1,.46.54L87.32,91.26a.71.71,0,0,1-.06.66.76.76,0,0,1-.74.34h-5.9a1.21,1.21,0,0,1-.7-.22,1.57,1.57,0,0,1-.5-.53l-.93-2.08a1.79,1.79,0,0,0-.5-.53,1.19,1.19,0,0,0-.68-.22H70a1.22,1.22,0,0,0-.71.22,1.3,1.3,0,0,0-.47.53l-1,2.08a1.3,1.3,0,0,1-.47.53,1.16,1.16,0,0,1-.67.22H60.83a.92.92,0,0,1-.36-.07.76.76,0,0,1-.32-.2.66.66,0,0,1-.15-.35.83.83,0,0,1,.1-.48Zm2,15h3.07a.56.56,0,0,0,.5-.22.47.47,0,0,0,0-.53c-.23-.58-.5-1.25-.83-2s-.62-1.49-.89-2.16c-.1-.21-.2-.31-.31-.31s-.22.1-.31.31l-1.73,4.18a.55.55,0,0,0,0,.53A.56.56,0,0,0,72.14,82.81Z" transform="translate(0.5 0.5)"/><path class="cls-4" d="M94.42,92.26H89.25a.81.81,0,0,1-.59-.24.78.78,0,0,1-.24-.58V67.84a.78.78,0,0,1,.24-.58.81.81,0,0,1,.59-.24H100a9.81,9.81,0,0,1,3.69.67,8.32,8.32,0,0,1,2.88,1.88,8.6,8.6,0,0,1,1.87,2.86,9.85,9.85,0,0,1,.67,3.66,9.63,9.63,0,0,1-.26,2.19,9.44,9.44,0,0,1-.74,2,8.43,8.43,0,0,1-1.14,1.74,6.49,6.49,0,0,1-1.48,1.3.91.91,0,0,0-.37.5.65.65,0,0,0,.13.57c.87,1.14,1.79,2.33,2.75,3.55s1.83,2.33,2.59,3.34a.67.67,0,0,1,.11.61.43.43,0,0,1-.45.32H103.8a1.66,1.66,0,0,1-.74-.19,1.52,1.52,0,0,1-.6-.46c-.74-1-1.46-2-2.18-2.93s-1.44-2-2.15-3a1.62,1.62,0,0,0-.58-.47,1.55,1.55,0,0,0-.72-.19h-.76a.78.78,0,0,0-.58.24.81.81,0,0,0-.24.59v5.59A.78.78,0,0,1,95,92,.82.82,0,0,1,94.42,92.26Zm1.65-13.58h3.64a2.76,2.76,0,0,0,.86-.16,2.36,2.36,0,0,0,.82-.48,2.65,2.65,0,0,0,.62-.81,2.52,2.52,0,0,0,.24-1.14,3.31,3.31,0,0,0-.12-.81,3,3,0,0,0-.41-.9,2.39,2.39,0,0,0-.79-.72,2.32,2.32,0,0,0-1.22-.3H96.07a.78.78,0,0,0-.58.24.82.82,0,0,0-.24.59v3.66a.78.78,0,0,0,.24.58A.79.79,0,0,0,96.07,78.68Z" transform="translate(0.5 0.5)"/><path class="cls-4" d="M113.29,91.44V67.84a.82.82,0,0,1,.82-.82h9.42a12.55,12.55,0,0,1,8.86,3.17,11.35,11.35,0,0,1,2.83,4.1,15.27,15.27,0,0,1,0,10.71,11.29,11.29,0,0,1-2.83,4.13,11.76,11.76,0,0,1-3.95,2.34,14.49,14.49,0,0,1-4.91.79h-9.42a.82.82,0,0,1-.82-.82Zm7.65-5.52h2.59a8.87,8.87,0,0,0,2-.24,4.52,4.52,0,0,0,1.86-.92,4.83,4.83,0,0,0,1.36-1.89,9.72,9.72,0,0,0,0-6.39,4.82,4.82,0,0,0-1.37-1.89,4.75,4.75,0,0,0-1.87-.92,8.63,8.63,0,0,0-2-.24h-2.59a.78.78,0,0,0-.58.24.82.82,0,0,0-.25.59V85.09a.82.82,0,0,0,.25.59A.78.78,0,0,0,120.94,85.92Z" transform="translate(0.5 0.5)"/><rect class="cls-5" x="37.69" y="105.84" width="71.83" height="28.34" rx="4.5"/><polyline class="cls-6" points="37.69 114.4 60.25 114.4 60.25 125.09 37.69 125.09"/><polyline class="cls-6" points="109.93 114.4 87.37 114.4 87.37 125.09 109.93 125.09"/><line class="cls-6" x1="67.18" y1="105.84" x2="60.25" y2="114.4"/><line class="cls-6" x1="80.37" y1="105.84" x2="87.37" y2="114.4"/><line class="cls-6" x1="80.23" y1="134.17" x2="87.16" y2="125.09"/><line class="cls-6" x1="67.04" y1="134.17" x2="60.04" y2="125.09"/><g class="cls-7"><rect class="cls-3" x="420.37" y="174.22" width="48.28" height="52.02" rx="0.95"/><rect class="cls-3" x="420.37" y="111.6" width="48.28" height="52.02" rx="0.95"/><rect class="cls-3" x="420.37" y="48.98" width="48.28" height="52.02" rx="0.95"/><path class="cls-3" d="M412.72,182.41s-14.36-48.22-69.25-55.91C343.47,126.5,357.29,163.43,412.72,182.41Z" transform="translate(0.5 0.5)"/><path class="cls-3" d="M409.2,157.73s-23.92-24.56-10.84-53.27C398.36,104.46,422,127.75,409.2,157.73Z" transform="translate(0.5 0.5)"/><path class="cls-3" d="M415.84,100.51S379.21,90.35,378.29,52.8C378.29,52.8,415.38,59.66,415.84,100.51Z" transform="translate(0.5 0.5)"/><path class="cls-3" d="M411.19,63.73s-22.9-23.51-10.38-51C400.81,12.74,423.4,35,411.19,63.73Z" transform="translate(0.5 0.5)"/></g></svg>