<?xml version="1.0" encoding="utf-8"?>
<!-- Generator: Adobe Illustrator 25.2.0, SVG Export Plug-In . SVG Version: 6.00 Build 0)  -->
<svg version="1.1" id="Layer_1" xmlns="http://www.w3.org/2000/svg" xmlns:xlink="http://www.w3.org/1999/xlink" x="0px" y="0px"
	 viewBox="0 0 105.36 180" style="enable-background:new 0 0 105.36 180;" xml:space="preserve">
<style type="text/css">
	.st0{opacity:0.3;}
	.st1{fill:#497367;}
</style>
<g class="st0">
	<path class="st1" d="M70.13,136.04H99.8c3.04,0,5.56,2.46,5.56,5.56v32.84c0,3.04-2.46,5.56-5.56,5.56H70.13
		c-3.04,0-5.56-2.46-5.56-5.56V141.6C64.56,138.49,67.02,136.04,70.13,136.04z"/>
	<path class="st1" d="M70.13,83.12H99.8c3.04,0,5.56,2.46,5.56,5.56v32.84c0,3.04-2.46,5.56-5.56,5.56H70.13
		c-3.04,0-5.56-2.46-5.56-5.56V88.68C64.56,85.58,67.02,83.12,70.13,83.12z"/>
	<path class="st1" d="M70.13,30.2H99.8c3.04,0,5.56,2.46,5.56,5.56V68.6c0,3.04-2.46,5.56-5.56,5.56H70.13
		c-3.04,0-5.56-2.46-5.56-5.56V35.77C64.56,32.72,67.02,30.2,70.13,30.2z"/>
	<path class="st1" d="M58.54,143.35c0,0-12.12-40.74-58.54-47.24C0,96.12,11.71,127.31,58.54,143.35z"/>
	<path class="st1" d="M55.55,122.51c0,0-20.19-20.78-9.19-45.01C46.36,77.5,66.32,97.17,55.55,122.51z"/>
	<path class="st1" d="M61.17,74.16c0,0-30.97-8.6-31.73-40.33C29.44,33.83,60.76,39.63,61.17,74.16z"/>
	<path class="st1" d="M57.25,43.08c0,0-19.38-19.84-8.78-43.08C48.47,0,67.55,18.85,57.25,43.08z"/>
</g>
</svg>
